<?xml version="1.0" encoding="utf-8"?>
<!-- Generator: Adobe Illustrator 26.0.3, SVG Export Plug-In . SVG Version: 6.00 Build 0)  -->
<svg version="1.1" id="Layer_1" xmlns="http://www.w3.org/2000/svg" xmlns:xlink="http://www.w3.org/1999/xlink" x="0px" y="0px"
	 viewBox="0 0 300 300" style="enable-background:new 0 0 300 300;" xml:space="preserve">
<style type="text/css">
	.st0{fill:#403F41;}
	.st1{fill:#961A1D;}
	.st2{fill-rule:evenodd;clip-rule:evenodd;fill:#403F41;}
	.st3{fill-rule:evenodd;clip-rule:evenodd;fill:#961A1D;}
</style>
<g id="XMLID_19_">
	<g id="XMLID_38_">
		<path id="XMLID_48_" class="st0" d="M31.9,224.3h4.6l5.5,14.5c0.4,1,0.7,1.8,0.9,2.5s0.5,1.4,0.6,2c0.5-1.5,0.9-3,1.4-4.5
			c0.1-0.2,0.1-0.3,0.1-0.4l5.8-15.4l6.1,15.7c0.3,0.8,0.6,1.5,0.8,2.3c0.3,0.8,0.5,1.5,0.7,2.3c0.1-0.6,0.3-1.2,0.5-1.9
			s0.5-1.5,0.9-2.5l5.4-14.7H70l-11.2,29.9l-6.6-16.4c-0.3-0.7-0.6-1.4-0.8-2.1c-0.2-0.7-0.4-1.3-0.6-1.9c-0.2,0.8-0.4,1.5-0.7,2.2
			c-0.2,0.7-0.5,1.3-0.7,1.9L43,254.2L31.9,224.3z"/>
		<path id="XMLID_46_" class="st0" d="M72.6,253.1v-28.8h4.7v28.8H72.6z"/>
		<path id="XMLID_44_" class="st0" d="M83.3,247.3l3.7-1.7c0.4,1.3,1,2.3,1.9,2.9c0.9,0.7,2.2,1,3.6,1s2.5-0.4,3.3-1.2
			s1.2-1.8,1.2-3.1c0-1.7-1.4-3.2-4.2-4.5c-0.4-0.2-0.7-0.3-0.9-0.4c-3.2-1.5-5.3-2.9-6.4-4.2s-1.6-2.8-1.6-4.6
			c0-2.3,0.8-4.3,2.4-5.7c1.6-1.5,3.7-2.2,6.3-2.2c2.1,0,3.9,0.4,5.3,1.2s2.4,2,3,3.5l-3.7,1.9c-0.6-0.9-1.2-1.6-1.9-2
			c-0.7-0.4-1.5-0.6-2.4-0.6c-1.3,0-2.3,0.3-3,1s-1.1,1.5-1.1,2.6c0,1.7,1.6,3.3,4.9,4.8c0.2,0.1,0.4,0.2,0.6,0.3
			c2.8,1.3,4.8,2.6,5.9,3.8c1.1,1.3,1.6,2.8,1.6,4.7c0,2.7-0.9,4.9-2.6,6.5s-4,2.4-7,2.4c-2.5,0-4.5-0.6-6-1.7
			C84.8,251.1,83.8,249.4,83.3,247.3z"/>
		<path id="XMLID_41_" class="st0" d="M106.7,253.1v-28.8h6.3c4.1,0,7,0.2,8.7,0.6c1.7,0.4,3.1,1.1,4.4,2.1c1.7,1.3,2.9,2.9,3.8,4.9
			s1.3,4.3,1.3,6.8c0,2.6-0.4,4.8-1.3,6.8c-0.9,2-2.1,3.6-3.8,4.9c-1.3,1-2.7,1.7-4.3,2.1c-1.6,0.4-4.1,0.6-7.5,0.6H113L106.7,253.1
			L106.7,253.1z M111.3,248.9h3.9c2.2,0,3.8-0.1,4.9-0.4c1.1-0.3,2-0.8,2.8-1.5c1.1-0.9,1.9-2.1,2.5-3.5c0.5-1.4,0.8-3,0.8-4.8
			s-0.3-3.4-0.8-4.8c-0.5-1.4-1.4-2.5-2.5-3.5c-0.8-0.7-1.8-1.2-2.9-1.5s-2.9-0.4-5.3-0.4H113h-1.7V248.9z"/>
		<path id="XMLID_39_" class="st0" d="M161.2,238.9c-0.1-0.2-0.1-0.8-0.3-1.9c-0.1-0.8-0.2-1.5-0.3-2.1c-0.1,0.7-0.3,1.3-0.5,2
			s-0.5,1.3-0.8,2l-7.5,15.4l-7.5-15.7c-0.3-0.6-0.6-1.3-0.8-1.9c-0.2-0.6-0.4-1.2-0.6-1.8c0,0.6-0.1,1.2-0.1,1.9
			c-0.1,0.7-0.2,1.4-0.4,2.1l-3.1,14.2H135l6.8-30l8.5,18.2c0.1,0.3,0.3,0.8,0.6,1.4c0.3,0.7,0.6,1.5,1,2.5c0.3-0.8,0.7-1.9,1.3-3.1
			c0.2-0.3,0.3-0.6,0.4-0.8l8.3-18.2l7,30h-4.4L161.2,238.9z"/>
	</g>
	<g id="XMLID_26_">
		<path id="XMLID_36_" class="st1" d="M171.5,253.1v-28.8h7.9v22.1h9.8v6.7H171.5z"/>
		<path id="XMLID_33_" class="st1" d="M189.9,253.1l9.9-28.8h9.8l10,28.8h-7.8l-1.5-5.2h-11.2l-1.5,5.2H189.9z M200.9,242.3h7.8
			l-2.9-9.5c-0.1-0.3-0.2-0.8-0.4-1.4c-0.2-0.6-0.4-1.5-0.6-2.5c-0.2,0.7-0.3,1.4-0.5,2s-0.3,1.3-0.5,1.9L200.9,242.3z"/>
		<path id="XMLID_29_" class="st1" d="M221.2,253.1v-28.8h7.9c3.3,0,5.5,0.1,6.8,0.3s2.4,0.6,3.3,1.1c1.1,0.6,1.9,1.4,2.4,2.4
			c0.6,1,0.8,2.1,0.8,3.4c0,1.6-0.4,2.9-1.3,3.9c-0.8,1-2.2,1.7-4,2.2c2,0.2,3.6,0.9,4.8,2.2s1.7,3,1.7,5.1c0,1.5-0.3,2.9-1,4.1
			c-0.6,1.2-1.6,2.1-2.8,2.7c-1,0.5-2.2,0.9-3.6,1.1c-1.4,0.2-3.8,0.3-7.1,0.3H221.2z M228.5,235.8h1.6c1.9,0,3.3-0.2,4-0.6
			c0.7-0.4,1.1-1.2,1.1-2.2c0-1.1-0.3-1.9-1-2.3c-0.7-0.4-2-0.7-3.9-0.7h-1.7v5.8H228.5z M228.5,247.2h2.8c1.9,0,3.2-0.2,4-0.7
			s1.2-1.2,1.2-2.3c0-1.2-0.4-2.1-1.1-2.5c-0.7-0.5-2-0.7-3.9-0.7h-2.9v6.2H228.5z"/>
		<path id="XMLID_27_" class="st1" d="M250.4,243.8c1.2,1.3,2.3,2.3,3.5,3c1.1,0.7,2.3,1,3.4,1s1.9-0.3,2.6-0.8c0.7-0.6,1-1.3,1-2.1
			c0-1-0.3-1.7-0.9-2.2s-1.9-1.1-4-1.6c-2.8-0.8-4.8-1.8-6-3s-1.8-2.9-1.8-5c0-2.8,0.9-5,2.8-6.7c1.8-1.7,4.2-2.6,7.2-2.6
			c1.6,0,3.1,0.2,4.5,0.6c1.4,0.4,2.8,1.1,4,1.9l-2.5,5.7c-0.9-0.8-1.8-1.3-2.7-1.7c-0.9-0.4-1.9-0.6-2.8-0.6s-1.7,0.2-2.3,0.7
			c-0.6,0.5-0.9,1-0.9,1.7s0.3,1.3,0.8,1.7c0.5,0.4,1.5,0.8,3,1.2l0.4,0.1c3.2,0.9,5.3,1.8,6.3,2.9c0.7,0.7,1.2,1.6,1.6,2.5
			c0.4,1,0.5,2.1,0.5,3.3c0,3.1-1,5.5-3,7.4s-4.7,2.8-8,2.8c-2,0-3.8-0.3-5.5-1c-1.6-0.7-3.2-1.8-4.8-3.2L250.4,243.8z"/>
	</g>
	<path id="XMLID_23_" class="st2" d="M150.5,91.5l-54.1,55l54.1,54.1l54.1-54.1L150.5,91.5z M150.5,124.8l-20.7,20.9l20.7,20.6
		l20.7-20.6L150.5,124.8z"/>
	
		<rect id="XMLID_3_" x="89.6" y="53.4" transform="matrix(0.707 -0.7072 0.7072 0.707 -65.5925 111.2452)" class="st2" width="23.8" height="162.7"/>
	<polygon id="XMLID_2_" class="st2" points="150.7,200.4 265.6,85.5 248.8,68.6 133.7,183.6 	"/>
	<path id="XMLID_1_" class="st3" d="M150.7,45.7c10.7,0,19.3,8.7,19.3,19.3c0,10.7-8.6,19.3-19.3,19.3c-10.6,0-19.3-8.6-19.3-19.3
		C131.3,54.2,140,45.7,150.7,45.7L150.7,45.7z"/>
</g>
</svg>
